<svg xmlns="http://www.w3.org/2000/svg"
     width="24"
     height="24"
     viewBox="0 0 24 24">
<style type="text/css">
	.st0{fill-rule:evenodd;clip-rule:evenodd;fill:#FFFFFF;}
</style>
<path class="st0" d="M12.1,0C9.2,0,6.4,1,4.2,2.9c-2.2,1.9-3.6,4.4-4.1,7.2c-0.5,2.8,0.1,5.7,1.6,8.2c1.5,2.4,3.8,4.3,6.5,5.2
	c0.6,0.1,0.8-0.3,0.8-0.6v-2C5.7,21.6,5,19.2,5,19.2c-0.2-0.7-0.7-1.4-1.3-1.8c-1.1-0.7,0.1-0.7,0.1-0.7c0.4,0.1,0.7,0.2,1.1,0.4
	c0.3,0.2,0.6,0.5,0.8,0.8c0.2,0.3,0.4,0.6,0.6,0.8c0.3,0.2,0.6,0.4,0.9,0.5c0.3,0.1,0.7,0.1,1,0.1c0.3,0,0.7-0.1,1-0.3
	c0-0.6,0.3-1.2,0.7-1.6c-2.7-0.3-5.5-1.3-5.5-5.9c0-1.2,0.4-2.4,1.2-3.2C5.2,7.2,5.3,6,5.7,5c0,0,1-0.3,3.3,1.2c2-0.5,4.1-0.5,6,0
	C17.3,4.7,18.4,5,18.4,5c0.4,1,0.5,2.1,0.1,3.2c0.8,0.9,1.3,2,1.2,3.2c0,4.6-2.8,5.6-5.5,5.9c0.3,0.3,0.5,0.6,0.7,1
	c0.1,0.4,0.2,0.8,0.2,1.2v3.3c0,0.4,0.2,0.7,0.8,0.6c2.7-0.9,5-2.8,6.4-5.2c1.5-2.4,2-5.3,1.5-8.1c-0.5-2.8-1.9-5.4-4-7.2
	C17.6,1.1,14.9,0,12.1,0z"/>
</svg>
