<svg xmlns="http://www.w3.org/2000/svg"
     width="24"
     height="24"
     viewBox="0 0 24 24">
<style type="text/css">
	.st0{fill:#FFFFFF;}
</style>
<g>
	<path class="st0" d="M20.7,10.8c-0.3,0-0.6,0-0.9,0.1c-0.3-1.5-1.2-2.8-2.6-3.5c-0.8-0.5-1.8-0.8-2.7-0.8c-1.6,0-2.3,0.5-2.3,0.5
		c-0.3,0.1-0.5,0.4-0.5,0.7v8.8c0,0.4,0.3,0.7,0.7,0.7h8.2c1.8,0,3.3-1.4,3.4-3.2c0,0,0-0.1,0-0.1C24,12.3,22.5,10.8,20.7,10.8z"/>
	<path class="st0" d="M10.5,8.1c-0.1,0-0.3,0.1-0.3,0.2c0,0,0,0,0,0.1c-0.2,3-0.4,5.7,0,8.7c0,0.1,0.1,0.3,0.3,0.2
		c0.1,0,0.2-0.1,0.2-0.2c0.4-3,0.2-5.7,0-8.7C10.7,8.3,10.6,8.1,10.5,8.1z"/>
	<path class="st0" d="M8.8,9.2c-0.1,0-0.2,0.1-0.2,0.2c-0.3,2.5-0.3,5.1,0,7.7c0,0.2,0.2,0.3,0.3,0.2c0.1,0,0.2-0.1,0.2-0.2
		c0.3-2.5,0.3-5.1,0-7.7C9.1,9.3,8.9,9.2,8.8,9.2z"/>
	<path class="st0" d="M7.1,9C7,9,6.9,9.1,6.9,9.2c-0.3,2.7-0.4,5.2,0,7.9c0,0.1,0.1,0.3,0.3,0.3c0.1,0,0.3-0.1,0.3-0.3
		c0.4-2.7,0.3-5.2,0-7.9C7.4,9,7.3,8.9,7.1,9z"/>
	<path class="st0" d="M5.5,9.7c-0.2,0-0.3,0.1-0.3,0.3c-0.3,2.4-0.3,4.8,0,7.2c0,0.1,0.2,0.3,0.3,0.2c0.1,0,0.2-0.1,0.2-0.2
		c0.3-2.4,0.3-4.8,0-7.2C5.8,9.8,5.6,9.7,5.5,9.7z"/>
	<path class="st0" d="M3.8,11.5c-0.2,0-0.3,0.1-0.3,0.3c-0.4,1.8-0.2,3.5,0,5.4c0,0.1,0.2,0.2,0.3,0.2c0.1,0,0.2-0.1,0.2-0.2
		c0.2-1.9,0.4-3.5,0-5.4C4.1,11.6,4,11.5,3.8,11.5z"/>
	<path class="st0" d="M2.1,11.2c-0.1,0-0.2,0.1-0.3,0.3c-0.3,1.9-0.2,3.5,0,5.4c0,0.3,0.5,0.3,0.5,0c0.3-1.9,0.4-3.5,0-5.4
		C2.4,11.3,2.3,11.2,2.1,11.2z"/>
	<path class="st0" d="M0.5,12.1c-0.1,0-0.2,0.1-0.3,0.3c-0.3,1.3-0.2,2.3,0,3.6c0,0.1,0.1,0.2,0.3,0.2c0.1,0,0.2-0.1,0.2-0.2
		c0.3-1.3,0.4-2.3,0-3.6C0.7,12.2,0.6,12.1,0.5,12.1z"/>
</g>
</svg>
