<svg xmlns="http://www.w3.org/2000/svg" width="24" height="24" viewBox="0 0 24 24"><defs><style>.a{fill:#fff;}</style></defs><title>steam</title><path class="a" d="M11.97919,0A12.01071,12.01071,0,0,0,0,11.03766L6.44287,13.6969a3.38563,3.38563,0,0,1,1.91492-.59107c.0636,0,.12689.00214.1897.00568L11.41266,8.9657l-.00031-.0586A4.53324,4.53324,0,1,1,15.94574,13.433c-.03449,0-.06873-.00079-.103-.00164L11.75641,16.342c.00213.05292.004.10693.004.16065a3.40326,3.40326,0,0,1-6.73877.66919L.41412,15.27026A12.01727,12.01727,0,1,0,11.97919,0Z"/><path class="a" d="M7.53278,18.20813l-1.47663-.609a2.55175,2.55175,0,1,0,1.39759-3.48523l1.52526.62958a1.87719,1.87719,0,1,1-1.44622,3.46466Z"/><path class="a" d="M18.96606,8.9071a3.0206,3.0206,0,1,0-3.02056,3.0152A3.02135,3.02135,0,0,0,18.96606,8.9071ZM13.68134,8.902a2.26929,2.26929,0,1,1,2.26928,2.26507A2.26714,2.26714,0,0,1,13.68134,8.902Z"/></svg>