<?xml version="1.0" encoding="utf-8"?>
<!-- Generator: Adobe Illustrator 23.0.5, SVG Export Plug-In . SVG Version: 6.00 Build 0)  -->
<svg version="1.1" id="Layer_1" xmlns="http://www.w3.org/2000/svg" xmlns:xlink="http://www.w3.org/1999/xlink" x="0px" y="0px"
	 viewBox="0 0 57.9 64" style="enable-background:new 0 0 57.9 64;" xml:space="preserve">
<style type="text/css">
	.st0{opacity:0.4;fill:url(#path2851_1_);}
	.st1{opacity:0.4;fill:url(#SVGID_1_);}
	.st2{opacity:0.4;}
	.st3{fill:url(#SVGID_2_);}
	.st4{fill:url(#SVGID_3_);}
	.st5{fill:url(#SVGID_4_);}
</style>
<radialGradient id="path2851_1_" cx="-209.3551" cy="247.4456" r="68.5179" gradientTransform="matrix(-0.3664 -5.540111e-02 -0.1106 0.7317 -20.7811 -169.1887)" gradientUnits="userSpaceOnUse">
	<stop  offset="0" style="stop-color:#EE352C"/>
	<stop  offset="1" style="stop-color:#A91D22"/>
</radialGradient>
<path id="path2851" class="st0" d="M10.1,7.4c0,0-0.2,0.3,0,0.8c0.1,0.3,0.5,0.7,0.9,1c0,0,4.2,4.1,4.7,4.7c2.3,2.7,3.3,5.3,3.4,9
	c0.1,2.3-0.4,4.4-1.5,6.8c-2,4.3-6.1,9-12.5,14.2l0.9-0.3c0.6-0.5,1.4-0.9,3.3-2c4.4-2.4,9.4-4.7,15.6-7c8.8-3.3,23.3-7.2,31.6-8.5
	l0.9-0.1l-0.1-0.2c-0.8-1.2-1.3-1.9-1.9-2.7c-1.8-2.2-4-4.1-6.7-5.6c-3.7-2.1-8.5-3.7-14.5-4.9c-1.1-0.2-3.6-0.7-5.7-1
	c-4.3-0.7-7.1-1.1-10.2-1.7c-1.1-0.2-2.7-0.5-3.8-0.7C13.9,9.3,12.8,9,12,8.7C11.3,8.4,10.3,8.2,10.1,7.4L10.1,7.4z M12.5,9.7
	c0,0,0.2,0,0.4,0.1c0.4,0.1,0.8,0.3,1.4,0.4c0.4,0.1,0.8,0.2,1.2,0.3c0.6,0.1,1,0.3,1,0.3c0.1,0.1,1,3.1,1.3,4.3
	c0.1,0.4,0.2,0.8,0.2,0.8c0,0-0.1-0.2-0.2-0.4c-1.1-1.9-2.8-3.9-4.9-5.5C12.7,9.9,12.5,9.7,12.5,9.7z M17.2,11c0,0,0.3,0,0.5,0.1
	c1.6,0.4,4.5,0.9,6.3,1.2c0.3,0.1,0.6,0.1,0.6,0.1c0,0-0.1,0.1-0.3,0.2c-0.3,0.2-1.6,0.9-2,1.2c-1,0.7-2,1.4-2.7,2.1
	c-0.3,0.3-0.5,0.5-0.5,0.5s-0.1-0.2-0.1-0.4c-0.3-1.3-1-3.2-1.7-4.6C17.2,11.2,17.1,11,17.2,11C17.1,11,17.1,11,17.2,11L17.2,11z
	 M25.3,12.6c0.1,0,0.2,0.3,0.3,1c0.3,1.4,0.5,2.9,0.5,4.3c0,0.4,0,0.8-0.1,0.8l0,0.1l-0.5-0.2c-1-0.3-2.6-0.8-4-1.2
	c-0.8-0.2-1.5-0.4-1.5-0.4c0-0.1,1.2-1.2,1.7-1.7C22.6,14.5,25.2,12.5,25.3,12.6L25.3,12.6z M26,12.7c0,0,3.9,0.6,5.7,1
	c1.3,0.3,3.2,0.6,3.3,0.7c0.1,0-0.1,0.1-0.8,0.4c-2.5,1.1-4.3,2.1-6.2,3.4c-0.5,0.3-0.9,0.6-0.9,0.6c0,0,0-0.3,0-0.6
	c0-1.8-0.4-3.6-1-5.1C26,12.8,26,12.7,26,12.7L26,12.7z M36,14.6c0,0-0.1,0.8-0.2,1.2c-0.3,1.4-1.2,3.5-2.4,5.4
	C33.2,21.7,33,22,33,22c0,0-0.3-0.1-0.6-0.3c-1.1-0.6-2.3-1.2-3.7-1.8c-0.4-0.2-0.7-0.3-0.7-0.3c-0.1-0.1,3-2.1,4.6-3
	C33.9,15.8,35.9,14.6,36,14.6z M36.7,14.8c0.1,0,1.8,0.5,2.7,0.7c2.2,0.7,4.8,1.6,6.4,2.3l0.7,0.3L46,18.3c-4,0.9-7.5,2-10.9,3.4
	c-0.3,0.1-0.5,0.2-0.5,0.2c0,0,0.1-0.2,0.2-0.5c1-2.1,1.7-4.4,1.8-6.3C36.6,14.9,36.7,14.8,36.7,14.8L36.7,14.8z M19.6,18.7
	c0,0,1.3,0.3,2,0.5c1.1,0.3,3.3,1.1,3.4,1.1c0,0-0.3,0.2-0.6,0.5c-1.2,1-2.4,2.1-3.8,3.5c-0.4,0.4-0.8,0.7-0.8,0.7c0,0,0-0.1,0-0.1
	c0.2-1.6,0.2-3.6-0.1-5.7C19.6,18.9,19.6,18.7,19.6,18.7L19.6,18.7z M47.1,18.7c0,0-0.6,1-1,1.6c-0.6,0.8-1.4,1.9-3.3,4.2
	c-1,1.2-2.1,2.6-2.5,3.1c-0.4,0.5-0.7,0.9-0.7,0.9c0,0-0.1-0.2-0.3-0.4c-1.1-1.6-2.3-3-3.8-4.2c-0.3-0.2-0.6-0.5-0.7-0.6
	c-0.1-0.1-0.2-0.2-0.2-0.2c0,0,1.6-0.7,2.8-1.2c2.1-0.9,5-1.9,7.2-2.6C45.9,19,47.1,18.7,47.1,18.7L47.1,18.7z M47.9,18.9
	c0,0,0.3,0.1,0.5,0.3c2.3,1.3,4.5,3,6.3,4.7c0.5,0.5,1.7,1.8,1.7,1.8c0,0-0.4,0-0.9,0.1c-4,0.3-9,1.1-13.9,2.3
	c-0.3,0.1-0.6,0.1-0.6,0.1c0,0,0.3-0.4,0.8-0.8c2.9-2.8,4.2-4.5,5.7-7.6C47.6,19.3,47.8,18.9,47.9,18.9
	C47.8,18.9,47.8,18.9,47.9,18.9L47.9,18.9z M26.9,21c0.1,0,1.4,0.6,2.3,1.1c0.8,0.4,2.1,1.1,2.2,1.2c0,0-0.4,0.2-1,0.5
	c-1.8,0.9-3.3,1.7-4.9,2.7C25,26.8,24.6,27,24.6,27c0,0,0,0,0.2-0.5c0.8-1.5,1.5-3.4,1.9-5.2C26.8,21.1,26.9,21,26.9,21L26.9,21z
	 M25.7,21.3c0,0-0.3,1.2-0.5,1.8c-0.4,1.2-1,2.7-1.7,3.8c-0.1,0.3-0.4,0.7-0.5,0.9l-0.2,0.4l-0.5-0.5c-0.6-0.6-1.1-1-1.8-1.3
	c-0.3-0.1-0.5-0.2-0.5-0.3c0-0.1,1.6-1.5,2.8-2.6C23.8,22.7,25.6,21.2,25.7,21.3z M33.1,24.3l0.5,0.3c1.1,0.7,2.3,1.6,3.3,2.4
	c0.5,0.4,1.6,1.4,1.8,1.6l0.1,0.1L38,29c-4.3,1.2-7.6,2.3-11.5,3.7c-0.4,0.2-0.8,0.3-0.8,0.3c-0.1,0-0.1,0,0.9-0.8
	c2.5-2.3,4.7-4.8,6.3-7.3L33.1,24.3z M31.2,24.8c0,0-1.3,1.8-2,2.9c-0.9,1.2-2.6,3.3-3.7,4.6c-0.5,0.6-0.9,1-0.9,1c0,0,0-0.1,0-0.3
	c0-1.1-0.3-2.4-0.8-3.4c-0.2-0.4-0.3-0.5-0.2-0.6c0.2-0.2,2.9-1.7,4.7-2.7C29.3,25.7,31.2,24.8,31.2,24.8L31.2,24.8z M19.3,27.7
	c0,0,0.2,0.1,0.5,0.2c0.6,0.3,1.1,0.7,1.6,1.1c0,0-0.2,0.2-0.5,0.4c-0.9,0.6-2.3,1.7-3,2.3c-0.8,0.7-0.9,0.7-0.8,0.5
	c0.6-1,0.9-1.5,1.3-2.2c0.3-0.6,0.6-1.3,0.8-2C19.2,28,19.3,27.7,19.3,27.7L19.3,27.7z M22.4,30.2c0,0,0.1,0.1,0.4,0.5
	c0.5,0.8,0.9,1.9,1.1,2.7l0,0.2l-1.3,0.5c-2.3,0.9-4.4,1.8-5.9,2.4c-0.4,0.2-1.1,0.5-1.6,0.8c-0.5,0.2-0.8,0.4-0.8,0.4
	c0,0,0.3-0.2,0.6-0.5c2.8-2,5.3-4.3,7.1-6.5C22.2,30.5,22.4,30.3,22.4,30.2C22.4,30.2,22.4,30.2,22.4,30.2L22.4,30.2z M21,30.6
	c0,0-1,1.3-1.8,2c-1.8,1.9-3.6,3.3-5.8,4.7c-0.3,0.2-0.5,0.3-0.6,0.4c-0.1,0,0-0.1,1-1.1c0.6-0.7,1.1-1.2,1.6-1.9
	c0.4-0.5,0.4-0.5,0.9-0.9C17.8,32.7,20.9,30.6,21,30.6L21,30.6z"/>
<linearGradient id="SVGID_1_" gradientUnits="userSpaceOnUse" x1="11.5382" y1="39.3788" x2="29.5122" y2="49.9993">
	<stop  offset="0" style="stop-color:#909CA9"/>
	<stop  offset="1" style="stop-color:#EDEDEE"/>
</linearGradient>
<path class="st1" d="M35.1,31.6c0-0.1,0-0.2,0-0.3c-0.5,0.1-0.9,0.3-1.4,0.4c0.1,0.5,0.4,3,0.4,4.6c0,0.4,0,0.6,0,0.6
	c-0.1,0-1.6-0.9-2.7-1.6c-0.9-0.6-2.7-1.7-3-2c-0.3,0.1-0.7,0.2-1,0.3c0.1,0.1,0.3,0.2,0.7,0.4c1.9,1.2,4.6,2.7,5.7,3.2
	c0.3,0.2,0.4,0.1-0.4,0.6c-1.7,1.2-3.9,2.3-6.5,3.5c-0.5,0.2-0.8,0.4-0.9,0.4c0,0,0-0.2,0.1-0.5c0.6-2.3,1-4.7,1-6.6
	c0-0.5,0-0.7,0-0.8c-0.4,0.1-0.8,0.3-1.2,0.4c0,0.4,0,2.1-0.1,2.7c-0.2,1.4-0.4,2.7-0.9,4.1c-0.1,0.3-0.2,0.6-0.2,0.7
	c0,0-1.3-1.2-1.8-1.7c-0.7-0.8-1.3-1.7-1.7-2.5c-0.2-0.4-0.4-1-0.5-1.2c-0.3,0.1-0.7,0.3-1,0.4c0,0.1,0.1,0.2,0.1,0.3
	c0.3,0.8,1,2,1.6,2.8c0.6,0.8,1.5,1.7,2.2,2.3c0.2,0.2,0.4,0.4,0.5,0.4c0.1,0.1,0.1,0-1.5,0.6c-1.8,0.7-3.7,1.4-5.9,2.1
	c-0.8,0.3-1.6,0.5-1.6,0.5c-0.1,0-0.1,0,0.2-0.4c1.1-1.7,2.8-5.1,3.7-7.5c0.2-0.4,0.3-0.8,0.3-0.9c0,0,0-0.1,0-0.1
	c-0.5,0.2-1.1,0.4-1.6,0.7c-0.1,0.3-0.5,1.1-0.9,1.9C16,41.1,15,42.9,13.7,45c-0.2,0.4-0.4,0.7-0.5,0.7c0,0.1-0.1,0-0.2-0.2
	c-0.3-0.6-0.6-1.4-0.7-2.2c-0.1-0.7-0.1-2,0.1-2.8c0.1-0.3,0.1-0.5,0.1-0.5c-0.6,0.3-1.2,0.6-1.7,0.9c0,0,0,0.1-0.1,0.4
	c0,0.2-0.1,0.7-0.1,1c-0.1,1.4,0.1,2.4,0.8,3.8c0.2,0.4,0.3,0.7,0.3,0.7c-0.1,0.1-6.3,1.9-8.3,2.4c-0.6,0.2-1.1,0.3-1.1,0.3
	c-0.1,0-0.1,0,0-0.2c0.2-1.4,1.3-3.2,2.7-4.7c0.8-0.9,1.5-1.4,2.6-2.1c-0.8,0.4-1.2,0.7-1.6,1l-0.9,0.3c0,0-0.1,0.1-0.1,0.1
	c-0.8,0.6-1.9,1.7-2.5,2.5c-0.9,1.1-1.5,2.2-1.8,3.1c-0.5,1.6-0.3,3.2,0.7,4.7C2.8,56,5.4,58,8.3,59.3c1.5,0.7,4.1,1.5,6,2
	c3.2,0.8,9.4,1.7,12.8,1.8c0.7,0,1.6,0,1.7,0c0.1,0,0.6-1.1,1.2-2.3c2.1-4.3,3.6-8.3,4.4-11.7c0.5-2.1,0.9-4.8,1.1-8.1
	c0.1-0.9,0.1-4,0-5C35.5,34.3,35.3,32.9,35.1,31.6z M15,47.1c3.1-0.8,5.7-1.7,8.3-2.9c0.4-0.2,0.7-0.3,0.7-0.3c0,0-0.1,0.2-0.2,0.4
	c-0.8,2-1.9,4.2-3.3,6.6c-0.3,0.6-0.6,1.1-0.7,1.1c0,0-0.3-0.2-0.6-0.4c-2-1.2-3.8-2.7-4.9-4.2l-0.2-0.2L15,47.1z M6.2,56l-0.4-0.4
	c-0.5-0.4-1.4-1.3-1.8-1.8c-0.8-1-1.4-2.1-1.6-3c-0.1-0.4-0.1-0.7,0-0.7c0.1,0,2.7-0.6,5-1.2c1.3-0.3,2.8-0.7,3.4-0.8
	c0.5-0.1,1-0.2,1-0.2v0c0,0-1.2,1.7-2.9,4.1c-0.6,0.8-1.3,1.8-1.5,2.1c-0.3,0.4-0.6,0.9-0.9,1.3L6.2,56z M6.8,56.5l-0.2-0.1L6.9,56
	c0.9-1.3,2-2.7,4.4-5.6l1.7-2v0l0.3,0.3c1.4,1.5,2.7,2.6,4.4,3.6c0.3,0.2,0.5,0.3,0.5,0.3c-0.1,0-5.8,2.1-8.5,3
	C8.2,56.2,7,56.7,7,56.7C7,56.7,6.9,56.6,6.8,56.5z M14.8,60.3l-0.1,0c-0.3-0.1-2.7-0.9-3.3-1.2c-0.8-0.3-1.6-0.7-2.2-1
	c-0.7-0.4-1.7-1-1.6-1c0,0,1.3-0.4,2.9-0.8c4.1-1.1,6.4-1.8,7.9-2.2c0.3-0.1,0.5-0.2,0.5-0.1l0,0c0,0-0.7,1.1-1.8,2.9
	c-0.5,0.8-1.1,1.7-1.3,2c-0.2,0.3-0.5,0.8-0.6,1L14.8,60.3z M15.6,60.4c0,0,0.2-0.3,0.5-0.6c1.4-1.6,2.7-3.4,3.8-5.1
	c0.3-0.5,0.6-0.9,0.6-0.9c0,0,0.4,0.1,0.9,0.3c1.2,0.5,2.2,0.8,3.5,1.1c1.6,0.4,3.9,0.8,5.3,0.9c0.2,0,0.3,0,0.3,0.1
	c-0.1,0-1.5,0.5-2.5,0.8c-1.6,0.5-6.6,2-10.6,3.1c-0.7,0.2-1.4,0.4-1.4,0.4C15.9,60.6,15.6,60.5,15.6,60.4z M28.5,62.3
	c-0.1,0.3-0.2,0.4-0.2,0.4c-0.2,0-2.4-0.3-3.7-0.5c-2.3-0.4-6.3-1-7.3-1.3l-0.2-0.1l1.4-0.3c3-0.7,4.5-1,5.9-1.5
	c1.9-0.6,3.7-1.3,5.5-2.1c0.3-0.1,0.5-0.2,0.6-0.3c0,0,0,0,0,0C30.6,56.7,29.1,60.9,28.5,62.3z M32.4,50.8c-0.3,1.2-0.6,2.1-1.1,3.7
	c-0.2,0.7-0.4,1.3-0.4,1.3c0,0-0.1,0-0.1,0c-2.8-0.5-5.3-1.2-7.7-2.2c-0.7-0.3-1.6-0.7-1.7-0.7c0,0,0.6-0.3,1.3-0.6
	c4.3-1.9,8.7-4,10.3-4.9c0.2-0.1,0.3-0.2,0.3-0.2c0,0,0,0,0,0C33.3,47.4,32.8,49.4,32.4,50.8z M33.1,46.8c-1.3,0.7-5.4,2.4-9.6,4
	c-0.6,0.2-1.2,0.5-1.3,0.5c-0.1,0-0.2,0.1-0.2,0.1s0.2-0.3,0.4-0.7c1.2-2.2,2.4-4.9,3-6.8c0.1-0.2,0.1-0.3,0.1-0.4
	c0,0,0.2,0.1,0.5,0.3c2,1.2,4.8,2.3,7.2,2.8l0.2,0L33.1,46.8z M34.1,38.5c0,2.1-0.2,5-0.6,7.1c-0.1,0.4-0.1,0.7-0.1,0.7
	c0,0-0.3-0.1-0.6-0.2c-1.4-0.4-2.9-1.1-4.3-1.9c-0.9-0.5-2.2-1.3-2.2-1.4c0,0,0.4-0.2,0.9-0.5c1.8-1,3.6-2,5.2-3
	c0.6-0.4,1.4-1,1.6-1.2l0.1-0.1V38.5z"/>
<g class="st2">
	<linearGradient id="SVGID_2_" gradientUnits="userSpaceOnUse" x1="10.0919" y1="6.3221" x2="28.4915" y2="6.3221">
		<stop  offset="0" style="stop-color:#939FAB"/>
		<stop  offset="1" style="stop-color:#DCDEE1"/>
	</linearGradient>
	<path class="st3" d="M11.7,8.6l0-0.1c0-0.6,0.8-1.6,2.2-2.5L14,5.9l1.3,1.7c0.7,0.9,1.5,1.8,1.6,2c0.1,0.2,0.2,0.3,0.3,0.4
		c0.4,0.1,0.8,0.1,1.1,0.2c0.3,0.1,0.6,0.1,0.9,0.2l-0.9-0.9c-1.7-1.6-3-2.9-3.5-3.3l-0.5-0.5l0.4,0.1c2,0.7,7,1.6,9.8,1.9
		c0.3,0,0.6,0.1,0.6,0.1S24.8,7.8,24.5,8c-1.3,0.7-2.8,1.5-3.8,2.1c-0.2,0.1-0.5,0.3-0.6,0.3c0.5,0.1,1,0.2,1.6,0.3
		c0,0,0.1-0.1,0.2-0.1c1-0.5,2-1.2,2.9-2c0.2-0.2,0.4-0.3,0.5-0.4c0,0,0,0,0,0h0c0,0,0.1,0.1,0.2,0.3c0.3,0.7,1.3,2.6,1.6,3
		c0,0,0,0.1,0,0.1c0.5,0.1,0.9,0.1,1.4,0.2c0,0,0,0,0,0l-0.2-0.4c-1.1-2-2.3-4.4-3.1-6c-0.6-1.3-1.1-2.7-1.4-3.8
		c-0.2-0.6-0.2-0.7-0.3-0.7c-0.2,0-3.6,1.2-5.7,2.1c-2.9,1.2-5.2,2.3-6.6,3.3c-0.5,0.3-1,0.9-1.2,1.2C10.3,8.1,11,8.4,11.7,8.6z
		 M18.3,3.5c1.3-0.6,4.8-2.1,5.1-2.1c0,0,0,0,0,0c0,0,0,0.3,0.1,0.6c0.2,1.3,0.5,2.6,0.9,4c0.3,1,0.4,1-0.1,0.9
		c-1-0.3-5.3-1-8.4-1.4c-0.5-0.1-0.9-0.1-0.9-0.1C15,5.2,17.3,4,18.3,3.5z"/>
	<linearGradient id="SVGID_3_" gradientUnits="userSpaceOnUse" x1="13.5823" y1="9.2864" x2="14.4771" y2="9.2864">
		<stop  offset="0" style="stop-color:#939FAB"/>
		<stop  offset="1" style="stop-color:#DCDEE1"/>
	</linearGradient>
	<path class="st4" d="M13.6,9.2c0.3,0.1,0.7,0.2,0.9,0.2c0,0,0,0,0,0c-0.1,0-0.1,0-0.2,0C14,9.3,13.8,9.2,13.6,9.2z"/>
	<linearGradient id="SVGID_4_" gradientUnits="userSpaceOnUse" x1="9.9773" y1="7.669" x2="10.0385" y2="7.669">
		<stop  offset="0" style="stop-color:#939FAB"/>
		<stop  offset="1" style="stop-color:#DCDEE1"/>
	</linearGradient>
	<path class="st5" d="M10,7.5C10,7.5,10,7.5,10,7.5C10,7.6,10,7.7,10,7.8l0,0C10,7.7,10,7.6,10,7.5z"/>
</g>
</svg>
