<?xml version="1.0" encoding="utf-8"?>
<!-- Generator: Adobe Illustrator 23.0.5, SVG Export Plug-In . SVG Version: 6.00 Build 0)  -->
<svg version="1.1" id="Layer_1" xmlns="http://www.w3.org/2000/svg" xmlns:xlink="http://www.w3.org/1999/xlink" x="0px" y="0px"
	 viewBox="0 0 64 64" style="enable-background:new 0 0 64 64;" xml:space="preserve">
<style type="text/css">
	.st0{opacity:0.3;}
	.st1{fill:#F7F7F7;}
	.st2{fill:#CECECE;}
	.st3{fill:#E2E2E2;}
	.st4{opacity:0.3;fill:#D3D3D3;}
</style>
<g class="st0">
	<path class="st1" d="M36.099,58.982l22.517-16.282c-1.615-0.931-3.875-3.664-4.744-6.073L31.355,52.908
		C31.305,54.659,34.758,58.547,36.099,58.982z M57.163,43.146L36.509,58.075l-1.441-1.639l20.654-14.929L57.163,43.146z
		 M54.008,39.247L33.404,54.138l-0.758-1.652l20.642-14.929L54.008,39.247z"/>
	<polygon class="st2" points="32.646,52.486 53.288,37.557 54.008,39.247 33.404,54.138 	"/>
	<polygon class="st2" points="35.068,56.435 55.722,41.507 57.163,43.146 36.509,58.075 	"/>
	<path class="st3" d="M58.877,33.037c1.677-1.292,5.924,4.993,4.856,6.048C62.218,39.085,58.616,34.539,58.877,33.037z"/>
	<path class="st2" d="M53.872,36.626c2.633,0.012,3.502-1.416,4.024-2.832c0.087,1.664,2.968,5.39,4.595,6.173
		c-2.322,0.286-3.043,0.77-3.875,2.732C57.002,41.768,54.741,39.035,53.872,36.626z"/>
	<path class="st1" d="M58.877,33.037c-0.261,1.503,3.341,6.048,4.856,6.048l-1.242,0.882c-1.627-0.782-4.508-4.508-4.595-6.173
		L58.877,33.037z"/>
	<path class="st1" d="M26.25,56.609l0.969-0.845c0.385,1.714,3.49,5.961,4.744,6.21l-1.093,0.869
		C30.212,63.291,25.455,57.802,26.25,56.609z"/>
	<path class="st2" d="M27.219,55.765c2.67-0.236,3.204-1.043,4.136-2.857c-0.05,1.751,3.403,5.639,4.744,6.073
		c-1.081,0.012-3.9,0.671-4.136,2.993C30.709,61.726,27.604,57.479,27.219,55.765z"/>
	<line class="st1" x1="54.008" y1="39.246" x2="54.058" y2="39.209"/>
</g>
<path class="st4" d="M0.139,9.409c0,0,0.258,0.735,0.636,1.814l-0.093-0.323c0,0,0.415,0.503,0.952,0.285
	c0.538-0.217,4.088-1.323,4.088-1.323s1.15,0.667,2.333,0.174c1.183-0.493,2.021-1.241,1.87-2.114
	c0.472-0.161,1.183-0.326,1.183-0.326s0.452-0.224,0.75,0.545l2.336,7.44c0.202,0.8-0.296,0.878-0.296,0.878
	s-0.675,0.277-1.153,0.418c-0.381-0.8-1.498-0.926-2.748-0.644c-1.25,0.282-1.803,1.491-1.803,1.491s-3.536,1.15-4.1,1.284
	c-0.194,0.046-0.347,0.173-0.469,0.318c0.204,0.576,0.349,0.981,0.388,1.084c0.23,0.602,0.664,0.385,0.664,0.385
	s5.94-1.932,6.674-2.201c0.734-0.268,1.436,0.674,1.026,1.374c-0.41,0.7-3.033,5.174-3.413,5.767
	c-0.38,0.593,0.194,0.875,0.194,0.875s0.593,0.318,1.488,0.797c0.143-0.065,0.283-0.16,0.37-0.35
	c0.24-0.528,2.052-3.775,2.052-3.775s1.293-0.309,1.811-1.481c0.519-1.172,0.61-2.292-0.101-2.82
	c0.231-0.442,0.633-1.051,0.633-1.051s0.173-0.473,0.919-0.121l6.818,3.785c0.697,0.441,0.39,0.841,0.39,0.841
	s-0.299,0.665-0.548,1.098c-0.827-0.317-1.724,0.36-2.435,1.426c-0.712,1.066-0.28,2.323-0.28,2.323s-1.771,3.269-2.088,3.755
	c-0.07,0.107-0.095,0.228-0.109,0.35c0.843,0.451,1.44,0.771,1.54,0.824c0.445,0.237,0.776-0.511,0.776-0.511
	s2.526-5.241,3.081-6.156c0.555-0.915,1.43-0.324,1.653,0.337c0.223,0.661,1.757,5.694,1.853,6.413
	c0.096,0.719,0.822,0.478,0.822,0.478s0.61-0.17,1.531-0.427c0.019-0.118,0.013-0.248-0.043-0.387
	c-0.217-0.538-1.323-4.088-1.323-4.088s0.667-1.15,0.174-2.333c-0.493-1.183-1.241-2.021-2.114-1.87
	c-0.161-0.472-0.326-1.183-0.326-1.183s-0.224-0.452,0.545-0.75l7.44-2.336c0.8-0.202,0.878,0.296,0.878,0.296
	s0.277,0.675,0.418,1.153c-0.8,0.381-0.926,1.498-0.644,2.748c0.282,1.25,1.491,1.803,1.491,1.803s1.15,3.536,1.284,4.1
	c0.059,0.248,0.248,0.431,0.441,0.562c0.746-0.205,1.267-0.347,1.375-0.372c0.543-0.127,0.414-0.612,0.414-0.612L31.939,5.751
	c-0.399-1.447-1.267-2.772-2.608-3.679c-1.704-1.153-3.786-1.126-5.611-0.565c0,0-22.88,7.007-23.328,7.246
	C-0.056,8.991,0.139,9.409,0.139,9.409z M22.671,19.951c0,0-4.52-2.532-5.344-3.057c-0.824-0.526-0.287-0.943-0.287-0.943
	s3.102-2.747,3.626-3.381c0.524-0.634,1.355-0.024,1.355-0.024s0.664,0.385,1.644,0.841c0.98,0.456,0.63,1.335,0.63,1.335
	s-0.327,4.417-0.525,5.064C23.572,20.433,22.671,19.951,22.671,19.951z M29.925,12.503c0.283-0.446,0.716-0.734,1.028-0.766
	c0.312-0.032,0.742,0.178,0.929,0.672c0.187,0.494,1.428,3.928,1.709,4.898c0.281,0.97-1.263,1.137-1.263,1.137
	s-5.563,1.475-5.834,1.574c-0.271,0.099-0.889,0.186-0.869-0.405c0.021-0.591,0.421-4.214,0.251-5.031
	c-0.17-0.817,0.666-0.787,0.666-0.787C27.934,13.867,29.642,12.949,29.925,12.503z M28.069,3.938c1.957,1.324,2.47,3.983,1.146,5.94
	s-3.983,2.47-5.94,1.146s-2.47-3.983-1.146-5.94S26.112,2.614,28.069,3.938z M13.364,6.702c0.963-0.305,4.508-1.179,5.023-1.298
	c0.515-0.118,0.928,0.122,1.075,0.399c0.147,0.277,0.147,0.797-0.066,1.28c-0.214,0.483-0.03,2.413,0.803,3.533
	c0,0,0.489,0.679-0.285,0.99c-0.774,0.312-3.565,2.656-4.045,3.002c-0.48,0.345-0.751-0.217-0.819-0.498
	c-0.068-0.281-1.929-5.726-1.929-5.726S12.4,7.007,13.364,6.702z"/>
</svg>
