<?xml version="1.0" encoding="utf-8"?>
<!-- Generator: Adobe Illustrator 23.0.5, SVG Export Plug-In . SVG Version: 6.00 Build 0)  -->
<svg version="1.1" id="Layer_1" xmlns="http://www.w3.org/2000/svg" xmlns:xlink="http://www.w3.org/1999/xlink" x="0px" y="0px"
	 viewBox="0 0 64 64" style="enable-background:new 0 0 64 64;" xml:space="preserve">
<style type="text/css">
	.st0{opacity:0.3;}
	.st1{fill:#FFFFFF;}
	.st2{fill:#E7242D;}
</style>
<g class="st0">
	<polygon class="st1" points="40.39,3.887 6.782,8.275 9.008,13.606 33.423,10.051 42.191,19.176 56.557,16.593 	"/>
	<polygon class="st1" points="28.587,33.139 42.075,30.268 33.754,19.888 10.689,23.964 12.941,30.01 25.363,27.59 	"/>
	<polygon class="st1" points="29.347,44.612 26.288,38.591 14.674,41.244 16.88,47.716 	"/>
	<path class="st2" d="M41.433,0L2.537,5.069v0.294l5.619,33.584L16.141,64l41.032-11.684l4.29-36.598L41.433,0z M10.689,23.964
		l23.065-4.077l8.321,10.38l-13.488,2.871l-3.224-5.549l-12.422,2.42L10.689,23.964z M26.288,38.591l3.059,6.021L16.88,47.716
		l-2.206-6.472L26.288,38.591z M33.423,10.051L9.008,13.606L6.782,8.275L40.39,3.887l16.167,12.706l-14.366,2.583L33.423,10.051z"/>
</g>
</svg>
