<?xml version="1.0" encoding="utf-8"?>
<!-- Generator: Adobe Illustrator 23.0.5, SVG Export Plug-In . SVG Version: 6.00 Build 0)  -->
<svg version="1.1" id="Layer_1" xmlns="http://www.w3.org/2000/svg" xmlns:xlink="http://www.w3.org/1999/xlink" x="0px" y="0px"
	 viewBox="0 0 64 64" style="enable-background:new 0 0 64 64;" xml:space="preserve">
<style type="text/css">
	.st0{opacity:0.35;}
	.st1{fill:#D1D1D1;}
	.st2{fill:#595959;}
	.st3{fill:#C4C4C4;}
	.st4{fill:#A0A0A0;}
	.st5{fill:#727272;}
	.st6{fill:#EDEDED;}
</style>
<g class="st0">
	<ellipse class="st1" cx="50.7" cy="34.2" rx="5.3" ry="2.7"/>
	<path class="st2" d="M30.4,29.7"/>
	<ellipse class="st1" cx="35.7" cy="29.7" rx="5.3" ry="2.7"/>
	<path class="st3" d="M35.7,32.4c-2.9,0-5.3-1.2-5.3-2.7V33c0,1.5,2.4,2.7,5.3,2.7c2.9,0,5.3-1.2,5.3-2.7v-3.2
		C41,31.2,38.7,32.4,35.7,32.4z"/>
	<path class="st4" d="M39.8,51.7c-3.2-1-5.7-4.4-5.7-7.5c0-1.6,0.7-2.8,1.8-3.5c-1.7,0.5-2.8,1.9-2.8,4c0,3.2,2.6,6.7,5.8,7.8
		c2.1,0.7,3.9,0.2,5-1.2C42.9,52,41.4,52.2,39.8,51.7z"/>
	<path class="st3" d="M44.5,46.7c0,0.2,0.1,0.5,0.1,0.7c0,2.6-2.1,4.1-4.7,3.2c-2.6-0.9-4.7-3.7-4.7-6.3c0-2.5,1.9-3.9,4.3-3.3
		c-0.1-0.1-0.3-0.1-0.4-0.2c-1.1-0.4-2.1-0.4-3-0.1c-1.1,0.7-1.8,1.9-1.8,3.5c0,3.1,2.6,6.5,5.7,7.5c1.6,0.5,3,0.3,4.1-0.4
		c0.5-0.7,0.9-1.6,0.9-2.7C44.8,48,44.7,47.4,44.5,46.7z"/>
	<path class="st5" d="M35.1,44.3c0,2.6,2.1,5.4,4.7,6.3c2.6,0.9,4.7-0.6,4.7-3.2c0-0.2,0-0.5-0.1-0.7c-0.7-2.4-2.7-4.7-5.1-5.7
		C37,40.5,35.1,41.9,35.1,44.3z"/>
	<path class="st3" d="M54.1,44.3l-29.6-9.6l0.3,17.8L54.2,62L54.1,44.3z M43.9,51.3c-1,1.4-2.9,1.9-5,1.2c-3.2-1.1-5.8-4.5-5.8-7.8
		c0-2.1,1.1-3.6,2.8-4c0.9-0.2,1.9-0.2,3,0.1c0.1,0,0.3,0.1,0.4,0.2c2.4,1,4.4,3.2,5.1,5.7c0.2,0.6,0.3,1.3,0.3,1.9
		C44.8,49.7,44.5,50.6,43.9,51.3z"/>
	<path class="st3" d="M50.7,36.9c-2.9,0-5.3-1.2-5.3-2.7v3.2c0,1.5,2.4,2.7,5.3,2.7c2.9,0,5.3-1.2,5.3-2.7v-3.2
		C56,35.7,53.7,36.9,50.7,36.9z"/>
	<path class="st6" d="M33.1,27.2l-0.3,0.3c0.2-0.1,0.4-0.1,0.7-0.2L33.1,27.2z"/>
	<path class="st1" d="M56,34.3v3.2c0,1.5-2.4,2.7-5.3,2.7c-2.9,0-5.3-1.2-5.3-2.7v-3.2c0-1,1.2-1.9,2.8-2.4L41,29.7v0.1V33
		c0,1.5-2.4,2.7-5.3,2.7c-2.9,0-5.3-1.2-5.3-2.7v-3.2c0-0.1,0-0.2,0-0.2l-6,5.2L54,44.4l8-8.2L56,34.3z"/>
	<polygon class="st4" points="62,36.1 54.1,44.3 54.2,62 62.1,53.7 	"/>
</g>
<g class="st0">
	<path class="st5" d="M45.4,14.1c-1.2,0-1.6-0.6-1.7-1.3c-0.6,0.2-1.1,0.5-1.4,0.6c-0.4,0.2-0.7,0.5-0.8,0.9
		c-0.3,0.8-0.3,1.7-0.3,1.7l0.4-0.2l0.8-0.3l0,0C43.2,15.1,44.3,14.6,45.4,14.1z"/>
	<path class="st3" d="M43.4,2.9c-1.3-0.7-3.2-0.3-3.6,0.9l1-0.4c2.8,1,5.2,4,6.3,8.1c0,0,1,0.2,1.3-0.5C48,7.3,45.7,4,43.4,2.9z"/>
	<path class="st3" d="M47.5,13.3c-0.3,0.1-0.7,0.3-1.2,0.5c-0.3,0.1-0.6,0.2-0.9,0.4c-1.1,0.5-2.2,0.9-3.1,1.3l0,0l-0.8,0.3L41.1,16
		c0,0.6,0.4,1.1,1.2,0.8c0.2-0.1,0.6-0.2,1.1-0.4c1.4-0.6,3.5-1.5,3.5-1.5c0,0.7-0.3,1.2-0.8,1.5l-1.6,0.7h0.1
		c1.7,0.6,2.9-0.4,3.5-2.4C48.2,14.6,48.4,13.1,47.5,13.3z"/>
	<path class="st3" d="M4,21.4c0,0,1.4-2.3,3.4,0.3l0,0l0,0C7.6,22,7.8,22.3,8,22.6l0,0l0,0c0.6,1,1.2,2.4,1.8,4.4
		c0,0,1.6,0.4,2.1-0.7c-0.4-3.6-2.4-7.3-4.8-8.4c-2-1-3.6,0-4.2,2.4C2.8,21.4,4,21.4,4,21.4z"/>
	<path class="st3" d="M9.6,29.4c0,0-2.6,3.6-5.6-5.1c0,0-0.6-1-1.3-0.6c0.4,3.6,2.5,7.2,4.8,8.4c2,1,3.6,0,4.2-2.3
		C11.3,29,9.6,29.4,9.6,29.4z"/>
	<path class="st5" d="M16.8,24.3l-4.9,2C11.4,27.4,9.8,27,9.8,27c-0.6-2-1.2-3.4-1.8-4.4l-4,1.6c3.1,8.7,5.6,5.1,5.6,5.1l2.3-1
		l3.8-1.6C18.1,25.8,16.9,24.4,16.8,24.3z"/>
	<path class="st3" d="M4,24.3l4-1.6c-0.2-0.4-0.4-0.7-0.6-0.9l-4.8,2C3.4,23.2,4,24.3,4,24.3z"/>
	<path class="st3" d="M16.8,24.3c0.1,0.1,1.3,1.5-1.1,2.5l-3.8,1.6l-2.3,1c0,0,1.6-0.4,2.1,0.4l0,0l4.9-2.1c0,0,1.4-0.5,1.4-1.9
		C18.1,25.8,18.2,24.3,16.8,24.3z"/>
	<path class="st3" d="M29,20.2c0-0.1,0-0.2-0.1-0.3c-0.4-2.5-1.5-5.1-2.9-7c-1-1.4-2.2-2.5-3.5-3l0,0c-0.8-0.3-1.5-0.4-2.1-0.2
		l-0.2,0.1c-1,0.4-1.7,1.5-1.9,3l3.3-1.4c0.1,0,0.2,0,0.3,0.1l0,0c1.1,0.4,2.1,1.4,3,2.6c1.2,1.6,2.2,3.8,2.5,6c0,0.1,0,0.2,0,0.2
		c0.2,1.5,0.1,2.8-0.3,3.7c-0.1,0.1-0.1,0.2-0.2,0.3l-3.1,1.3c0.3,0.2,0.6,0.4,0.9,0.5c0.9,0.4,1.7,0.4,2.3,0.1l0.3-0.1
		c0.5-0.3,1-0.8,1.3-1.6C29.1,23.5,29.3,22,29,20.2z"/>
	<path class="st1" d="M32.9,18.7c-0.6-4.5-3.5-9.1-6.5-10.3C25.5,8,24.7,8,24.1,8.2l-0.3,0.1l-3.4,1.4c0.6-0.2,1.3-0.2,2.1,0.2l0,0
		c1.2,0.5,2.5,1.6,3.5,3c1.4,1.9,2.5,4.5,2.9,7c0,0.1,0,0.2,0.1,0.3c0.2,1.8,0.1,3.3-0.4,4.3c-0.3,0.7-0.7,1.2-1.3,1.6l3.6-1.5
		C32.5,24,33.3,21.8,32.9,18.7z"/>
	<path class="st1" d="M27.4,20.3c0-0.1,0-0.2,0-0.2c-0.3-2.2-1.3-4.3-2.5-6c-0.9-1.2-1.9-2.2-3-2.6l0,0c-0.1,0-0.2,0-0.3-0.1
		l-15,6.3c0.1,0.1,0.3,0.1,0.4,0.1c2.4,1.2,4.4,4.8,4.8,8.4l4.9-2c1.4,0,1.3,1.5,1.3,1.5c0,1.4-1.4,1.9-1.4,1.9l-4.9,2.1l0,0l0,0
		c-0.1,0.4-0.3,0.8-0.5,1.2l15.7-6.6c0.1-0.1,0.1-0.2,0.2-0.3C27.5,23.1,27.6,21.9,27.4,20.3z"/>
	<path class="st1" d="M42.3,16.7c-0.7,0.3-1.1-0.2-1.2-0.8c0,0-0.1-0.9,0.3-1.7c0.2-0.4,0.4-0.7,0.8-0.9c0.3-0.1,0.8-0.3,1.4-0.6
		c1.1-0.4,2.4-1,3.4-1.4c-1.1-4.1-3.5-7.1-6.3-8.1L27.5,8.9c2.6,1.8,4.8,5.8,5.4,9.7c0.2,1.2,0.1,2.3,0,3.2l13.3-5.6
		c0.4-0.3,0.8-0.8,0.8-1.5c0,0-2.1,0.9-3.5,1.5C42.9,16.5,42.5,16.7,42.3,16.7z"/>
	<path class="st2" d="M46.9,14.8"/>
</g>
</svg>
