<?xml version="1.0" encoding="utf-8"?>
<!-- Generator: Adobe Illustrator 25.1.0, SVG Export Plug-In . SVG Version: 6.00 Build 0)  -->
<svg version="1.1" id="Layer_1" xmlns="http://www.w3.org/2000/svg" xmlns:xlink="http://www.w3.org/1999/xlink" x="0px" y="0px"
	 viewBox="0 0 243.1 233.6" style="enable-background:new 0 0 243.1 233.6;" xml:space="preserve">
<style type="text/css">
	.st0{fill-rule:evenodd;clip-rule:evenodd;fill:#FFFFFF;}
</style>
<path class="st0" d="M82.3,228.3c0-4.4,0-13.2,0-25.7C40,212.1,30.5,182,30.5,182c-2.9-9.6-8.8-16.9-16.8-22.8
	c-13.9-9.6,1.5-9.6,1.5-9.6c9.5,1.5,18.2,7.3,23.3,16.2C47.3,182,67,187.1,83,179l0,0c0.7-8.1,3.6-14.7,9.5-20.6
	c-34.3-4.4-70-17.6-70-75.7c0-15.4,5.1-30.1,15.3-41.2C33.4,28.3,34.1,13.6,40,0.4c0,0,13.1-4.4,41.6,15.4c24.8-6.6,51.1-6.6,75.9,0
	C186.6-4,199,0.4,199,0.4c5.8,12.5,6.6,27.2,2.2,40.4c10.2,11,16,25.7,15.3,41.2c0,58.8-35.7,72-69.3,75
	c7.3,7.4,10.9,17.6,10.2,27.9c0,20.6,0,36.7,0,41.9C158.1,235.6,82.3,235.6,82.3,228.3z"/>
</svg>
