<svg id="Layer_1" data-name="Layer 1" xmlns="http://www.w3.org/2000/svg" width="5.91065in" height="7.11111in" viewBox="0 0 425.56692 512"><defs><style>.cls-1{fill:#fff;}</style></defs><title>svelte</title><path class="cls-1" d="M441.5526,67.73138C394.26847-.37476,300.13442-20.32965,232.46171,22.6165L113.16714,98.96492a135.57534,135.57534,0,0,0-61.59943,91.53162c-5.63932,31.66724-.86738,64.20212,14.31556,92.399A130.96518,130.96518,0,0,0,45.4947,334.08372a145.95722,145.95722,0,0,0,24.72656,110.1849c47.71782,68.10614,141.41818,88.061,209.09062,45.11488l119.29457-75.91473a135.57422,135.57422,0,0,0,61.59943-91.53136c5.63933-31.66723.86765-64.20211-14.3153-92.399a130.96821,130.96821,0,0,0,20.38858-51.18816A142.93031,142.93031,0,0,0,441.5526,67.73138ZM407.71638,165.336a108.66767,108.66767,0,0,1-3.03665,11.27892l-2.169,6.94067-6.07328-4.338a158.22769,158.22769,0,0,0-46.85018-23.425l-4.338-1.30161.43395-4.338a29.0383,29.0383,0,0,0-4.77194-17.78563,28.4702,28.4702,0,0,0-30.79958-11.27865,37.51354,37.51354,0,0,0-7.37462,3.03637L183.87623,200.0399a24.58376,24.58376,0,0,0-11.27865,16.48455,26.92209,26.92209,0,0,0,4.338,19.95462,28.47035,28.47035,0,0,0,30.79959,11.27865,37.51379,37.51379,0,0,0,7.37462-3.03637l45.54884-29.06455a91.84781,91.84781,0,0,1,125.80154,26.89555c13.8816,19.087,19.08723,42.94589,15.18294,66.37111a82.14263,82.14263,0,0,1-37.30656,55.09245L245.042,439.93064a94.42439,94.42439,0,0,1-24.29287,10.845,94.5543,94.5543,0,0,1-101.50867-37.74052c-13.88161-19.08724-19.08724-42.94615-15.183-66.3711.86765-3.9043,1.735-7.37463,2.60269-11.27892l2.169-6.94067,6.07328,4.338a158.22839,158.22839,0,0,0,46.85018,23.42522l4.338,1.30135-.43369,4.338a29.03634,29.03634,0,0,0,4.77168,17.78563,28.71181,28.71181,0,0,0,30.79958,11.71261,37.53079,37.53079,0,0,0,7.37463-3.03664l118.86087-75.91473a24.58382,24.58382,0,0,0,11.27865-16.48428,26.92275,26.92275,0,0,0-4.338-19.95489A28.4702,28.4702,0,0,0,303.60476,264.676a37.53054,37.53054,0,0,0-7.37463,3.03664L250.6813,296.77716a80.698,80.698,0,0,1-24.29261,10.411,94.55369,94.55369,0,0,1-101.50894-37.74051,87.61738,87.61738,0,0,1-14.74925-66.37111,82.14391,82.14391,0,0,1,37.30682-55.09245L266.73189,72.06936A91.8475,91.8475,0,0,1,392.53343,98.96492C406.415,118.05216,411.6204,141.91107,407.71638,165.336Z" transform="translate(-43.21654)"/></svg>